<?xml version="1.0" encoding="UTF-8" standalone="no"?>
<svg
   xmlns:dc="http://purl.org/dc/elements/1.1/"
   xmlns:cc="http://creativecommons.org/ns#"
   xmlns:rdf="http://www.w3.org/1999/02/22-rdf-syntax-ns#"
   xmlns:svg="http://www.w3.org/2000/svg"
   xmlns="http://www.w3.org/2000/svg"
   xmlns:sodipodi="http://sodipodi.sourceforge.net/DTD/sodipodi-0.dtd"
   xmlns:inkscape="http://www.inkscape.org/namespaces/inkscape"
   width="64"
   height="64"
   viewBox="0 0 64 64"
   version="1.1"
   id="svg1579"
   inkscape:version="1.0 (4035a4fb49, 2020-05-01)"
   sodipodi:docname="FittingOriginal.svg">
  <defs
     id="defs1573">
    <inkscape:path-effect
       effect="mirror_symmetry"
       start_point="32,16"
       end_point="32,46"
       center_point="32,31"
       id="path-effect2189"
       is_visible="true"
       lpeversion="1"
       mode="free"
       discard_orig_path="false"
       fuse_paths="true"
       oposite_fuse="false"
       split_items="false" />
  </defs>
  <sodipodi:namedview
     id="base"
     pagecolor="#ffffff"
     bordercolor="#666666"
     borderopacity="1.0"
     inkscape:pageopacity="0.0"
     inkscape:pageshadow="2"
     inkscape:zoom="22.627417"
     inkscape:cx="27.617355"
     inkscape:cy="30.379659"
     inkscape:document-units="px"
     inkscape:current-layer="layer4"
     inkscape:document-rotation="0"
     showgrid="true"
     units="px"
     inkscape:lockguides="true"
     inkscape:window-width="1920"
     inkscape:window-height="1057"
     inkscape:window-x="-8"
     inkscape:window-y="-8"
     inkscape:window-maximized="1">
    <sodipodi:guide
       position="0,64"
       orientation="0,64"
       inkscape:locked="true"
       id="guide2142" />
    <sodipodi:guide
       position="64,64"
       orientation="64,0"
       inkscape:locked="true"
       id="guide2144" />
    <sodipodi:guide
       position="64,0"
       orientation="0,-64"
       inkscape:locked="true"
       id="guide2146" />
    <sodipodi:guide
       position="0,0"
       orientation="-64,0"
       inkscape:locked="true"
       id="guide2148" />
    <inkscape:grid
       type="axonomgrid"
       id="grid2150"
       enabled="false" />
    <inkscape:grid
       type="xygrid"
       id="grid2152"
       empspacing="8"
       dotted="false" />
  </sodipodi:namedview>
  <metadata
     id="metadata1576">
    <rdf:RDF>
      <cc:Work
         rdf:about="">
        <dc:format>image/svg+xml</dc:format>
        <dc:type
           rdf:resource="http://purl.org/dc/dcmitype/StillImage" />
        <dc:title />
      </cc:Work>
    </rdf:RDF>
  </metadata>
  <g
     inkscape:label="Backdrop"
     inkscape:groupmode="layer"
     id="layer1"
     style="opacity:0.186047" />
  <g
     inkscape:groupmode="layer"
     id="layer3"
     inkscape:label="Circle"
     style="opacity:0.38372093">
    <path
       id="path2169"
       style="opacity:0.997;fill:#80946e;fill-opacity:1;stroke-width:0.381732;stroke-linecap:round;stroke-linejoin:round"
       d="M 32 4 A 28 28 0 0 0 13.935547 10.607422 L 17.486328 14.158203 A 23 23 0 0 1 32 9 A 23 23 0 0 1 47.056641 14.615234 L 50.601562 11.070312 A 28 28 0 0 0 32 4 z M 11.070312 13.398438 A 28 28 0 0 0 4 32 A 28 28 0 0 0 11.072266 50.599609 L 14.613281 47.058594 A 23 23 0 0 1 9 32 A 23 23 0 0 1 14.615234 16.943359 L 11.070312 13.398438 z M 53.392578 13.935547 L 49.841797 17.486328 A 23 23 0 0 1 55 32 A 23 23 0 0 1 49.841797 46.513672 L 53.392578 50.064453 A 28 28 0 0 0 60 32 A 28 28 0 0 0 53.392578 13.935547 z M 47.058594 49.386719 A 23 23 0 0 1 32 55 A 23 23 0 0 1 17.486328 49.841797 L 13.935547 53.392578 A 28 28 0 0 0 32 60 A 28 28 0 0 0 50.599609 52.927734 L 47.058594 49.386719 z " />
  </g>
  <g
     inkscape:groupmode="layer"
     id="layer4"
     inkscape:label="Ship"
     style="display:inline">
    <path
       style="fill:#80946e;fill-opacity:1;stroke:none;stroke-width:0.202;stroke-linecap:butt;stroke-linejoin:miter;stroke-miterlimit:4;stroke-dasharray:none;stroke-opacity:1"
       d="m 32,38 h -1 c -1,0 -1,0 -1,-1 v -5 c 0,-1 0,-1 1,-1 V 16 h -4 v 7 c 0,1 0,1 1,1 v 12 l -4,4 c -2,0 -3,0 -3,-2 v -5 c -2,1 -3,2 -3,4 v 7 c 0,1 0,1 1,1 h 7 l 2,-2 h 1 v 3 h 3 3 v -3 h 1 l 2,2 h 7 c 1,0 1,0 1,-1 v -7 c 0,-2 -1,-3 -3,-4 v 5 c 0,2 -1,2 -3,2 L 36,36 V 24 c 1,0 1,0 1,-1 v -7 h -4 v 15 c 1,0 1,0 1,1 v 5 c 0,1 0,1 -1,1 z"
       id="path2187"
       sodipodi:nodetypes="cccccccccccccccccccccc"
       inkscape:path-effect="#path-effect2189"
       inkscape:original-d="m 32,38 h -1 c -1,0 -1,0 -1,-1 v -5 c 0,-1 0,-1 1,-1 V 16 h -4 v 7 c 0,1 0,1 1,1 v 12 l -4,4 c -2,0 -3,0 -3,-2 v -5 c -2,1 -3,2 -3,4 v 7 c 0,1 0,1 1,1 h 7 l 2,-2 h 1 v 3 h 3 z" />
  </g>
</svg>
