<?xml version="1.0" encoding="UTF-8" standalone="no"?>
<svg
   xmlns:dc="http://purl.org/dc/elements/1.1/"
   xmlns:cc="http://creativecommons.org/ns#"
   xmlns:rdf="http://www.w3.org/1999/02/22-rdf-syntax-ns#"
   xmlns:svg="http://www.w3.org/2000/svg"
   xmlns="http://www.w3.org/2000/svg"
   xmlns:sodipodi="http://sodipodi.sourceforge.net/DTD/sodipodi-0.dtd"
   xmlns:inkscape="http://www.inkscape.org/namespaces/inkscape"
   sodipodi:docname="ImplantIcon.svg"
   inkscape:version="1.0 (4035a4fb49, 2020-05-01)"
   id="svg8"
   version="1.1"
   viewBox="0 0 48 48"
   height="48"
   width="48">
  <defs
     id="defs2">
    <inkscape:path-effect
       update_on_knot_move="true"
       attempt_force_join="true"
       miter_limit="4"
       offset="0"
       unit="mm"
       linejoin_type="miter"
       lpeversion="1"
       is_visible="true"
       id="path-effect1513"
       effect="offset" />
  </defs>
  <sodipodi:namedview
     inkscape:window-maximized="1"
     inkscape:window-y="-8"
     inkscape:window-x="-8"
     inkscape:window-height="1057"
     inkscape:window-width="1920"
     units="px"
     showgrid="false"
     inkscape:document-rotation="0"
     inkscape:current-layer="layer1"
     inkscape:document-units="px"
     inkscape:cy="33.5004"
     inkscape:cx="31.210287"
     inkscape:zoom="11.313709"
     inkscape:pageshadow="2"
     inkscape:pageopacity="0.0"
     borderopacity="1.0"
     bordercolor="#666666"
     pagecolor="#ffffff"
     id="base" />
  <metadata
     id="metadata5">
    <rdf:RDF>
      <cc:Work
         rdf:about="">
        <dc:format>image/svg+xml</dc:format>
        <dc:type
           rdf:resource="http://purl.org/dc/dcmitype/StillImage" />
        <dc:title></dc:title>
      </cc:Work>
    </rdf:RDF>
  </metadata>
  <g
     style="opacity:1"
     id="layer1"
     inkscape:groupmode="layer"
     inkscape:label="Ebene 1">
    <path
       d="M 24 4 A 20 20 0 0 0 4 24 A 20 20 0 0 0 4.9609375 30.121094 L 4.9589844 30.121094 L 4.9648438 30.134766 A 20 20 0 0 0 7.0722656 34.652344 L 11.652344 32.515625 L 18.169922 29.476562 A 8 8 0 0 1 16.056641 24.945312 L 9.5390625 27.984375 A 15 15 0 0 1 9 24 A 15 15 0 0 1 23.886719 9 A 15 15 0 0 1 24 9 A 15 15 0 0 1 32.603516 11.712891 L 37.632812 9.3671875 A 20 20 0 0 0 24 4 z M 40.927734 13.347656 L 39.398438 14.060547 L 36.347656 15.484375 L 29.830078 18.523438 A 8 8 0 0 1 31.943359 23.054688 L 38.460938 20.015625 A 15 15 0 0 1 39 24 A 15 15 0 0 1 24 39 A 15 15 0 0 1 15.396484 36.287109 L 10.367188 38.632812 A 20 20 0 0 0 24 44 A 20 20 0 0 0 44 24 A 20 20 0 0 0 40.927734 13.347656 z M 24 19 A 5 5 0 0 0 19 24 A 5 5 0 0 0 24 29 A 5 5 0 0 0 29 24 A 5 5 0 0 0 24 19 z "
       style="opacity:1;fill:#000000;stroke:none;stroke-width:0.101;stroke-linecap:round;stroke-linejoin:round;stroke-opacity:1;fill-opacity:1"
       id="path1416" />
  </g>
</svg>
