<?xml version="1.0" encoding="UTF-8" standalone="no"?>
<svg
   xmlns:dc="http://purl.org/dc/elements/1.1/"
   xmlns:cc="http://creativecommons.org/ns#"
   xmlns:rdf="http://www.w3.org/1999/02/22-rdf-syntax-ns#"
   xmlns:svg="http://www.w3.org/2000/svg"
   xmlns="http://www.w3.org/2000/svg"
   id="Layer_1"
   height="512"
   viewBox="0 0 512 512"
   width="512"
   data-name="Layer 1"
   version="1.1">
  <defs
     id="defs88" />
  <path
     d="m246.222 279.355a12.941 12.941 0 0 0 -12.941 12.94v50.768a16.414 16.414 0 0 1 -32.827 0v-50.763a12.941 12.941 0 0 0 -12.94-12.94h-38.02v141.44h212.5v-141.445z"
     fill="#d05458"
     id="path69" />
  <path
     d="m361.994 122.416v156.939h-115.772a12.941 12.941 0 0 0 -12.941 12.94v50.768a16.414 16.414 0 0 1 -32.827 0v-50.763a12.94 12.94 0 0 0 -12.94-12.94h-38.02v-156.944a106.385 106.385 0 0 1 132.906-103.072 24.478 24.478 0 0 0 -.571 5.112 24.056 24.056 0 0 0 19.455 23.615 24.045 24.045 0 0 0 33.306 26.472 24.029 24.029 0 0 0 21.39 13.057c.12 0 .15-.01.271-.01a106.191 106.191 0 0 1 5.743 34.826z"
     fill="#5f91d4"
     id="path71" />
  <path
     d="m150.457 279.355h-.963v141.441h30.071v-141.441z"
     fill="#bc5058"
     id="path73" />
  <path
     d="m270.84 17.052a106.328 106.328 0 0 0 -121.346 105.364v156.939h30.071v-156.939a106.385 106.385 0 0 1 91.275-105.364z"
     fill="#4f7daf"
     id="path75" />
  <path
     d="m284.572 420.8v46.391a28.828 28.828 0 0 1 -57.656 0v-46.391z"
     fill="#fbe08b"
     id="path77" />
  <g
     fill="#f4f8fc"
     id="g83">
    <path
       d="m174 159a6 6 0 0 1 -6-6v-30.272a88.6 88.6 0 0 1 26.288-62.938 87.088 87.088 0 0 1 40.572-22.849 6 6 0 1 1 2.907 11.642 75.086 75.086 0 0 0 -34.989 19.688 76.682 76.682 0 0 0 -22.778 54.457v30.272a6 6 0 0 1 -6 6z"
       id="path79" />
    <path
       d="m174 196a6 6 0 0 1 -6-6v-12a6 6 0 0 1 12 0v12a6 6 0 0 1 -6 6z"
       id="path81" />
  </g>
</svg>
